<svg xmlns="http://www.w3.org/2000/svg" xmlns:xlink="http://www.w3.org/1999/xlink" viewBox="0 0 100 100.14"><defs><style>.cls-1{fill:url(#名称未設定グラデーション_24);}.cls-2{fill:url(#名称未設定グラデーション_24-2);}</style><linearGradient id="名称未設定グラデーション_24" x1="6.12" y1="25.85" x2="94.17" y2="25.85" gradientUnits="userSpaceOnUse"><stop offset="0" stop-color="#121c3a"/><stop offset="0.15" stop-color="#1d285b"/><stop offset="0.3" stop-color="#0c318b"/><stop offset="0.5" stop-color="#407bbe"/><stop offset="0.7" stop-color="#0c318b"/><stop offset="0.85" stop-color="#1d285b"/><stop offset="1" stop-color="#0e1733"/></linearGradient><linearGradient id="名称未設定グラデーション_24-2" x1="6.12" y1="66.48" x2="94.17" y2="66.48" xlink:href="#名称未設定グラデーション_24"/></defs><g id="レイヤー_2" data-name="レイヤー 2"><g id="レイヤー_1-2" data-name="レイヤー 1"><path class="cls-1" d="M99.54,49h0L50.82.3A1.1,1.1,0,0,0,50,0a1.13,1.13,0,0,0-.85.3L.45,49a1.55,1.55,0,0,0-.4,1.48,1.39,1.39,0,0,0,.15.39,1.58,1.58,0,0,0,1.73.75l31.52-7.74a.31.31,0,0,0,.23-.38l-.59-2.43a.29.29,0,0,0-.15-.19.29.29,0,0,0-.24,0L6.61,47.28,50,3.89l43.39,43.4-26.1-6.41a.33.33,0,0,0-.24,0,.35.35,0,0,0-.14.2l-.59,2.41a.32.32,0,0,0,.23.39l31.53,7.74a1.47,1.47,0,0,0,.36,0A1.55,1.55,0,0,0,99.54,49Z"/><path class="cls-2" d="M95.29,52.62a1.08,1.08,0,0,0-1.24-.22l0,0a.28.28,0,0,0-.15.08l-41,41L67.27,34.75a1.55,1.55,0,0,0-1.5-1.92,2.37,2.37,0,0,0-.41,0L50,36.64,34.63,32.87a1.33,1.33,0,0,0-.39,0,1.55,1.55,0,0,0-1.51,1.93l14.39,58.7L6.19,52.57,6,52.44l-.1,0a1.12,1.12,0,0,0-1.2.22L4,53.29a1.06,1.06,0,0,0-.32.77,1,1,0,0,0,.32.76L48.73,99.46a1.24,1.24,0,0,0,.39.4,1.14,1.14,0,0,0,.61.25l.14,0h.35a1,1,0,0,0,.59-.2,1.66,1.66,0,0,0,.3-.22L96,54.82a1.06,1.06,0,0,0,.32-.77,1,1,0,0,0-.32-.76ZM38.64,39.41a.37.37,0,0,0-.2.15.33.33,0,0,0,0,.24L39,42.22a.32.32,0,0,0,.38.23L50,39.85l10.61,2.6a.32.32,0,0,0,.39-.23l.59-2.42a.29.29,0,0,0,0-.24.3.3,0,0,0-.19-.14l-4.8-1.17,7-1.73L50,92.07,36.39,36.52l7,1.73Z"/></g></g></svg>